# xmcd
#
# Track frame offsets: 
#        150
#        12883
#        25381
#        38108
#        52667
#        68207
#        81264
#        93143
#        109065
#        120616
#        136466
#        153991
#        172769
#        185070
#        210920
#        222773
#        239237
#        251280
#        268540
#        282977
#
# Disc length: 3939 seconds
#
# Revision: 2
# Processed by: cddbd v1.5.2PL0 Copyright (c) Steve Scherf et al.
# Submitted via: ExactAudioCopy v0.99pb5
#
DISCID=0e0f6114
DTITLE=Various Artist - 100 Hits - 70s Heart Throbs - 100 Ultimate Teen Idols
DTITLE=Various Artist - CD 4
DYEAR=2016
DGENRE=Pop
TTITLE0=Nilsson - Everybody's talkin'
TTITLE1=Hello - New York groove
TTITLE2=Loggins and Messina - Your mama don't dance
TTITLE3=Mott The Hoople - Roll away the stone
TTITLE4=Buster - Goodbye paradise
TTITLE5=Poco - C'mon
TTITLE6=CoCo - Bad old days
TTITLE7=Dave Edmunds - Baby I love you
TTITLE8=Dawn - What are you doing Sunday
TTITLE9=Terry Jacks - Seasons in the sun
TTITLE10=Labi Siffre - It must be love
TTITLE11=Leo Sayer - When I need you
TTITLE12=5th Dimension - Wedding bell blues
TTITLE13=Walker Brothers - No regrets
TTITLE14=Sutherland Brothers and Quiver - Arms of Mary
TTITLE15=Gary Shearston - I get a kick out of you
TTITLE16=Mac Davis - In the ghetto
TTITLE17=Glitter Band - Goodbye my love
TTITLE18=New Seekers - You won't find another fool like me
TTITLE19=Fantastics - Something old, something new
EXTD=
EXTT0=
EXTT1=
EXTT2=
EXTT3=
EXTT4=
EXTT5=
EXTT6=
EXTT7=
EXTT8=
EXTT9=
EXTT10=
EXTT11=
EXTT12=
EXTT13=
EXTT14=
EXTT15=
EXTT16=
EXTT17=
EXTT18=
EXTT19=
PLAYORDER=
